{"title":"Cemetery.Without.Crosses.1969.DVDRip.XviD.Dual.Audio-ENG-ITA","uid":5262546,"size":840835066,"categoryP":"video","categoryS":"movies","magnet":"?xt=urn:btih:16bc944e545a77943f9b25b5826c85a8e2313482&amp;dn=Cemetery.Without.Crosses.1969.DVDRip.XviD.Dual.Audio-ENG-ITA&amp;tr=udp%3A%2F%2Ftracker.openbittorrent.com%3A80&amp;tr=udp%3A%2F%2Fopen.demonii.com%3A1337&amp;tr=udp%3A%2F%2Ftracker.coppersurfer.tk%3A6969&amp;tr=udp%3A%2F%2Fexodus.desync.com%3A6969","seeders":1,"leechers":0,"uploader":"snsdg","files":-1,"time":1262785102,"description":"Hossien stars as a leather-clad killer, drawn into a tragic kidnap/murder plot by his former flame Michelle Mercier. An almost totally visual film with perhaps not more than two dozen lines of dialogue.\n\nIMDB: http://www.imdb.com/title/tt0063740/\n\nGeneral\nComplete name                    : Cemetery.Without.Crosses.DVDRip.XviD.Dual.Audio-ENG-ITA.avi\nFormat                           : AVI\nFormat/Info                      : Audio Video Interleave\nFile size                        : 802 MiB\nDuration                         : 1h 27mn\nOverall bit rate                 : 1 288 Kbps\nWriting application              : FairUse Wizard\n\nVideo\nID                               : 0\nFormat                           : MPEG-4 Visual\nFormat profile                   : Advanced Simple@L5\nFormat settings, BVOP            : Yes\nFormat settings, QPel            : No\nFormat settings, GMC             : No warppoints\nFormat settings, Matrix          : Default (H.263)\nMuxing mode                      : Packed bitstream\nCodec ID                         : XVID\nCodec ID/Hint                    : XviD\nDuration                         : 1h 27mn\nBit rate                         : 1 014 Kbps\nWidth                            : 624 pixels\nHeight                           : 352 pixels\nDisplay aspect ratio             : 16:9\nFrame rate                       : 29.970 fps\nResolution                       : 8 bits\nColorimetry                      : 4:2:0\nScan type                        : Progressive\nBits/(Pixel*Frame)               : 0.154\nStream size                      : 631 MiB (79%)\nWriting library                  : XviD 1.1.0 (UTC 2005-11-22)\n\nAudio #1\nID                               : 1\nFormat                           : MPEG Audio\nFormat version                   : Version 1\nFormat profile                   : Layer 3\nMode                             : Joint stereo\nFormat_Settings_ModeExtension    : MS Stereo\nCodec ID                         : 55\nCodec ID/Hint                    : MP3\nDuration                         : 1h 27mn\nBit rate mode                    : Constant\nBit rate                         : 128 Kbps\nChannel(s)                       : 2 channels\nSampling rate                    : 48.0 KHz\nStream size                      : 79.7 MiB (10%)\nAlignment                        : Aligned on interleaves\nInterleave, duration             : 33 ms (1.00 video frame)\nInterleave, preload duration     : 504 ms\nWriting library                  : LAME3.97b\nEncoding settings                : -m j -V 4 -q 2 -lowpass 17 -b 128\n\nAudio #2\nID                               : 2\nFormat                           : MPEG Audio\nFormat version                   : Version 1\nFormat profile                   : Layer 3\nMode                             : Joint stereo\nFormat_Settings_ModeExtension    : MS Stereo\nCodec ID                         : 55\nCodec ID/Hint                    : MP3\nDuration                         : 1h 27mn\nBit rate mode                    : Constant\nBit rate                         : 128 Kbps\nChannel(s)                       : 2 channels\nSampling rate                    : 48.0 KHz\nStream size                      : 79.7 MiB (10%)\nAlignment                        : Aligned on interleaves\nInterleave, duration             : 33 ms (1.00 video frame)\nInterleave, preload duration     : 504 ms\nWriting library                  : LAME3.97b\nEncoding settings                : -m j -V 4 -q 2 -lowpass 17 -b 128","torrent":{"xt":"urn:btih:16bc944e545a77943f9b25b5826c85a8e2313482","amp;dn":"Cemetery.Without.Crosses.1969.DVDRip.XviD.Dual.Audio-ENG-ITA","amp;tr":["udp%3A%2F%2Ftracker.openbittorrent.com%3A80","udp%3A%2F%2Fopen.demonii.com%3A1337","udp%3A%2F%2Ftracker.coppersurfer.tk%3A6969","udp%3A%2F%2Fexodus.desync.com%3A6969"],"infoHash":"16bc944e545a77943f9b25b5826c85a8e2313482","infoHashBuffer":{"type":"Buffer","data":[22,188,148,78,84,90,119,148,63,155,37,181,130,108,133,168,226,49,52,130]},"announce":[],"urlList":[]}}